<?xml version="1.0" encoding="UTF-8"?>
<svg id="Layer_2" data-name="Layer 2" xmlns="http://www.w3.org/2000/svg" viewBox="0 0 458.5 432.93">
  <defs>
    <style>
      .cls-1 {
        fill: #b3b752;
      }

      .cls-2 {
        fill: #61519c;
      }

      .cls-3 {
        fill: #fff;
      }
    </style>
  </defs>
  <g id="Layer_6_copy_2" data-name="Layer 6 copy 2">
    <g>
      <path class="cls-1" d="M53.08,134.95c-.19-7.74.13-14.78.71-21.02s1.41-11.66,2.25-16.16c2.57-13.75,4.68-25.05,12.39-37.78,7.38-12.17,16.14-19.47,21.13-23.56,10.48-8.59,19.88-12.87,28.66-16.8,6.94-3.1,20.37-8.6,42.16-13.18C186.12,1.06,206.17.57,224.61.21c17.96-.35,36.08-.7,60.28,2.96,28.58,4.33,48.16,11.62,54.68,14.16,19.25,7.5,29.8,14.55,32.61,16.47,7.16,4.89,16.86,11.63,26.02,23.71,2.23,2.94,8.32,11.34,13.17,23.72,4.2,10.71,5.67,19.81,6.26,24.7.92,7.64.69,13.22.33,21.74-.41,9.73-1.37,18.11-2.38,24.78,14.13-10.54,29.52-13.72,37.04-7.67,6.5,5.23,6.13,16.58,5.65,31.48-.33,10.23-2.25,17.66-2.93,20.17-1.09,4.02-3.96,14.65-10.05,22.67-12.67,16.69-36.05,17.83-41.29,17.97-1.04,8.07-2.81,19.77-5.92,33.7-4.72,21.14-8.87,39.77-20.05,61.24-6.55,12.58-15.3,28.97-33.19,43.45-8.45,6.84-16.07,10.93-25.08,15.3-61.32,29.78-115.06,38.02-131.57,40.25-13.35,1.8-23.74,2.55-36.27,1.29-9.43-.95-27.42-3.03-47.07-14.4-22.99-13.3-34.53-31.4-37.04-35.48-3.71-6.03-10.03-17.8-15.43-53.26-2.81-18.42-5.45-43.82-4.89-74.59-3.2-1.37-8.3-3.82-13.83-7.9C7.32,227.27,2.64,194.38.81,181.52c-.62-4.34-1.41-11.81-.11-21.06,1.02-7.24,1.94-13.84,6.93-20.36,5.79-7.57,13.36-10.2,14.79-10.67,7.02-2.33,12.94-1.38,15.69-.9,7.26,1.25,12.39,4.51,14.98,6.42Z"/>
      <path class="cls-3" d="M30.85,165.29c1-.18,2.22,2.47,6.88,13.02,3.26,7.39,4.89,11.09,5.07,11.6.9,2.59,6.61,19.54,2.02,22.39-2.8,1.73-8.37-2.52-9.42-3.33-1.57-1.2-5.53-4.22-4.99-7.21.55-3.03,5.09-2.4,6.65-5.54,2.43-4.9-6.66-10.3-7.64-22.21-.33-3.96.2-8.5,1.43-8.72Z"/>
      <path class="cls-3" d="M437.22,177.55c-2.39-2-17.42,13.58-18.96,15.19-4.17,4.35-9.01,9.99-9.54,16.72-.11,1.39-.31,4.44,1.53,5.89,1.37,1.08,3.3.8,4.83.47,6.61-1.42,18.56-6.56,17.9-12.13-.15-1.24-.98-2.93-2.24-4.12-1.82-1.72-3.47-1.39-3.89-2.47-.64-1.66,2.69-3.8,5.42-7.07,3.93-4.72,6.27-11.38,4.95-12.48Z"/>
      <path class="cls-3" d="M152.91,132.57c-5.47-1.58-12.32-2.55-19.64-.86-27.95,6.45-45.84,47.75-38.16,78.48,1.42,5.7,4.6,17.67,15.82,26.19,12.64,9.6,26.92,8.31,29.3,8.06,9.51-1,16.33-5.09,19.63-7.39-7.8-7.93-16.33-18.99-22.1-33.65-5.9-15-14.22-47.23-.51-57.11,3.81-2.75,9.8-4.22,14.41-2.06,9.03,4.23,7.23,19.76,12.13,43.5,2.96,14.33,7.15,25.77,10.37,33.47,4.15-6.55,10.66-19.04,10.95-35.54.09-4.91.56-31.89-18.81-46.42-4.92-3.69-9.83-5.61-13.39-6.67Z"/>
      <path class="cls-3" d="M251.27,132.14c2.69,13.36,5.38,26.72,8.06,40.08,6.45,32.08,9.82,48.15,16.54,49.07,5.25.72,11.33-6.84,11.9-7.56,2.93-3.72,4-7.63,4.61-11.02,2.99-16.48-2.31-33.57-2.31-33.57-6.08-19.59-17.59-33.35-25.39-41.13,2.72-.09,6.43-.01,10.76.71,8.99,1.49,15.28,4.87,18.63,6.7,3.06,1.67,10.45,6.04,17.71,14.11,9.98,11.09,13.68,22.5,15.67,28.86,2.06,6.59,4.83,15.44,3.85,27.19-.55,6.58-1.74,20.84-12.63,30.03-3.06,2.58-6.11,4.1-8.28,4.99-2.17.78-5.24,1.7-8.99,2.18-10.02,1.3-17.83-1.35-21.23-2.54-1.75-.61-8.12-2.96-15.73-8.92-17.89-14-24.02-33.39-25.65-38.78-3.85-12.75-3.55-22.95-3.29-27.06.53-8.22,1.36-19,9.21-27.76,2.4-2.68,4.83-4.47,6.56-5.59Z"/>
      <path class="cls-3" d="M302.94,265c-2.61,7.58-8.17,22.43-17.04,37.25-8.39,14.03-15.56,21.06-18.88,24.08-4.53,4.12-38.7,35.15-77.93,22.83-28.48-8.95-41.34-35.02-44.08-40.93,1-.52,2.82-1.28,5.12-1.18,0,0,2.17.09,4.32,1.22,4.9,2.57,9.4,10.48,13.04,15.26.58.76,6.48,8.34,16.09,13.31,6.5,3.37,12.22,4.26,15.35,4.72,19.44,2.85,37.68-6.62,42.44-9.07,35.07-18.12,49.9-60.62,52.31-67.84,1.34.16,2.77.28,4.29.35,1.77.08,3.43.07,4.97,0Z"/>
      <path class="cls-2" d="M53.08,134.95c-.19-7.74.13-14.78.71-21.02s1.41-11.66,2.25-16.16c2.57-13.75,4.68-25.05,12.39-37.78,7.38-12.17,16.14-19.47,21.13-23.56,10.48-8.59,19.88-12.87,28.66-16.8,6.94-3.1,20.37-8.6,42.16-13.18C186.12,1.06,206.17.57,224.61.21c17.96-.35,36.08-.7,60.28,2.96,28.58,4.33,48.16,11.62,54.68,14.16,19.25,7.5,29.8,14.55,32.61,16.47,7.16,4.89,16.86,11.63,26.02,23.71,2.23,2.94,8.32,11.34,13.17,23.72,4.2,10.71,5.67,19.81,6.26,24.7.92,7.64.69,13.22.33,21.74-.41,9.73-1.37,18.11-2.38,24.78,14.13-10.54,29.52-13.72,37.04-7.67,6.5,5.23,6.13,16.58,5.65,31.48-.33,10.23-2.25,17.66-2.93,20.17-1.09,4.02-3.96,14.65-10.05,22.67-12.67,16.69-36.05,17.83-41.29,17.97-1.04,8.07-2.81,19.77-5.92,33.7-4.72,21.14-8.87,39.77-20.05,61.24-6.55,12.58-15.3,28.97-33.19,43.45-8.45,6.84-16.07,10.93-25.08,15.3-61.32,29.78-115.06,38.02-131.57,40.25-13.35,1.8-23.74,2.55-36.27,1.29-9.43-.95-27.42-3.03-47.07-14.4-22.99-13.3-34.53-31.4-37.04-35.48-3.71-6.03-10.03-17.8-15.43-53.26-2.81-18.42-5.45-43.82-4.89-74.59-3.2-1.37-8.3-3.82-13.83-7.9C7.32,227.27,2.64,194.38.81,181.52c-.62-4.34-1.41-11.81-.11-21.06,1.02-7.24,1.94-13.84,6.93-20.36,5.79-7.57,13.36-10.2,14.79-10.67,7.02-2.33,12.94-1.38,15.69-.9,7.26,1.25,12.39,4.51,14.98,6.42Z"/>
      <path class="cls-3" d="M30.85,165.29c1-.18,2.22,2.47,6.88,13.02,3.26,7.39,4.89,11.09,5.07,11.6.9,2.59,6.61,19.54,2.02,22.39-2.8,1.73-8.37-2.52-9.42-3.33-1.57-1.2-5.53-4.22-4.99-7.21.55-3.03,5.09-2.4,6.65-5.54,2.43-4.9-6.66-10.3-7.64-22.21-.33-3.96.2-8.5,1.43-8.72Z"/>
      <path class="cls-3" d="M437.22,177.55c-2.39-2-17.42,13.58-18.96,15.19-4.17,4.35-9.01,9.99-9.54,16.72-.11,1.39-.31,4.44,1.53,5.89,1.37,1.08,3.3.8,4.83.47,6.61-1.42,18.56-6.56,17.9-12.13-.15-1.24-.98-2.93-2.24-4.12-1.82-1.72-3.47-1.39-3.89-2.47-.64-1.66,2.69-3.8,5.42-7.07,3.93-4.72,6.27-11.38,4.95-12.48Z"/>
      <path class="cls-3" d="M152.91,132.57c-5.47-1.58-12.32-2.55-19.64-.86-27.95,6.45-45.84,47.75-38.16,78.48,1.42,5.7,4.6,17.67,15.82,26.19,12.64,9.6,26.92,8.31,29.3,8.06,9.51-1,16.33-5.09,19.63-7.39-7.8-7.93-16.33-18.99-22.1-33.65-5.9-15-14.22-47.23-.51-57.11,3.81-2.75,9.8-4.22,14.41-2.06,9.03,4.23,7.23,19.76,12.13,43.5,2.96,14.33,7.15,25.77,10.37,33.47,4.15-6.55,10.66-19.04,10.95-35.54.09-4.91.56-31.89-18.81-46.42-4.92-3.69-9.83-5.61-13.39-6.67Z"/>
      <path class="cls-3" d="M251.27,132.14c2.69,13.36,5.38,26.72,8.06,40.08,6.45,32.08,9.82,48.15,16.54,49.07,5.25.72,11.33-6.84,11.9-7.56,2.93-3.72,4-7.63,4.61-11.02,2.99-16.48-2.31-33.57-2.31-33.57-6.08-19.59-17.59-33.35-25.39-41.13,2.72-.09,6.43-.01,10.76.71,8.99,1.49,15.28,4.87,18.63,6.7,3.06,1.67,10.45,6.04,17.71,14.11,9.98,11.09,13.68,22.5,15.67,28.86,2.06,6.59,4.83,15.44,3.85,27.19-.55,6.58-1.74,20.84-12.63,30.03-3.06,2.58-6.11,4.1-8.28,4.99-2.17.78-5.24,1.7-8.99,2.18-10.02,1.3-17.83-1.35-21.23-2.54-1.75-.61-8.12-2.96-15.73-8.92-17.89-14-24.02-33.39-25.65-38.78-3.85-12.75-3.55-22.95-3.29-27.06.53-8.22,1.36-19,9.21-27.76,2.4-2.68,4.83-4.47,6.56-5.59Z"/>
      <path class="cls-3" d="M302.94,265c-2.61,7.58-8.17,22.43-17.04,37.25-8.39,14.03-15.56,21.06-18.88,24.08-4.53,4.12-38.7,35.15-77.93,22.83-28.48-8.95-41.34-35.02-44.08-40.93,1-.52,2.82-1.28,5.12-1.18,0,0,2.17.09,4.32,1.22,4.9,2.57,9.4,10.48,13.04,15.26.58.76,6.48,8.34,16.09,13.31,6.5,3.37,12.22,4.26,15.35,4.72,19.44,2.85,37.68-6.62,42.44-9.07,35.07-18.12,49.9-60.62,52.31-67.84,1.34.16,2.77.28,4.29.35,1.77.08,3.43.07,4.97,0Z"/>
      <path class="cls-1" d="M340.48,155.28c.09.18.18.37.26.55-7.23-14.88-17.82-28.02-31.62-36.68-18.99-11.91-51.55-20.02-73.59-3.75-7.33,5.41-12.25,12.63-15.37,20.76.09-.25.19-.52.28-.76-9.95-.53-19.9-1.05-29.85-1.58.48.67.98,1.38,1.48,2.13-.48-.71-.96-1.42-1.48-2.13-5.39-7.36-10.93-11.61-12.79-12.97-4.9-3.6-23-15.67-46.51-10.6-24.22,5.23-35.55,24.45-37.25,27.46-13.42-7.93-26.84-15.86-40.25-23.79-.28,3.09-.5,6.34-.63,9.73-.15,3.95-.16,7.72-.08,11.29,10.03,7.29,20.06,14.57,30.08,21.86-17.17,40.21-8.89,81.77,16.67,100.84,20.32,15.16,44.67,10.97,46.49,10.63,34.53-6.49,51.68-43.44,56.21-67.31.71-3.74,6.13-31.17-5.44-56.08,1.65,3.53,2.84,6.84,3.69,9.71,5.08.25,10.15.51,15.23.76.18-2.56.54-5.5,1.17-8.67-3.96,20.39.74,43.81,6.98,59.12,12.71,31.18,45.44,62.17,81.54,59.03,5.33-.46,18.76-1.63,29.51-11.47,17.37-15.9,21.24-48.53,12.65-78.82,0,.02.01.05.02.07,22.57-7.39,45.13-14.78,67.7-22.16.54-3.62,1.03-7.41,1.42-11.36.36-3.56.62-7,.8-10.31-25.78,8.17-51.55,16.34-77.33,24.5ZM183.87,196.12c-3.22,16.95-15.4,43.19-39.92,47.8-10.49,1.97-23.27-.15-33.02-7.55-23.84-18.1-21.3-61.06-4.11-85.17,3.53-4.95,11.65-16.31,26.46-19.5,16.69-3.6,29.55,4.98,33.03,7.53,1.32.97,5.26,3.98,9.09,9.21,14.09,19.26,9.06,44.62,8.48,47.68ZM195.77,142.2c.34.66.69,1.33,1.02,2.03,0,.02.01.03.02.05-.33-.7-.69-1.39-1.05-2.08ZM192.8,137.08c.21.33.42.67.63,1.01-.21-.34-.42-.68-.63-1.01ZM194.4,139.7c.29.5.58,1.01.87,1.54-.28-.52-.57-1.03-.87-1.54ZM217.53,144.96c.05-.24.11-.45.17-.69-.13.58-.27,1.16-.39,1.75.08-.36.14-.7.22-1.07ZM218.22,142.19c-.02.07-.04.15-.06.22.02-.07.04-.15.06-.22ZM318.67,235.61c-7.88,6.87-17.66,7.32-21.5,7.5-26.2,1.2-48.56-22.82-56.73-45.41-7.03-19.42-9.19-53.36,10.84-65.56,16.49-10.04,39.53-.18,51.72,9.13,30.27,23.12,36.86,75.85,15.68,94.34ZM343.51,161.99s-.03-.06-.04-.09c.01.03.03.06.04.09ZM344.48,164.42s.01.03.02.05c-.08-.2-.16-.39-.24-.59.07.18.15.36.22.54ZM347.1,171.97c.12.4.24.8.36,1.19-.12-.4-.23-.8-.36-1.19ZM345.43,166.97c.19.53.36,1.04.54,1.56-.18-.52-.36-1.04-.54-1.56ZM346.29,169.46c.18.53.34,1.04.5,1.56-.17-.52-.33-1.04-.5-1.56Z"/>
    </g>
  </g>
</svg>